<svg width="24" height="24" viewBox="0 0 24 24" fill="none" xmlns="http://www.w3.org/2000/svg">
<path d="M8.87222 3.79743C8.75369 3.7241 8.68813 3.58895 8.70393 3.45047C8.71972 3.31199 8.81403 3.19507 8.94602 3.15033C11.6052 2.23409 14.5355 2.56294 16.9254 4.04583C17.0119 4.10036 17.0711 4.1891 17.0883 4.28989C17.1055 4.39069 17.079 4.49403 17.0154 4.57413C15.9734 5.90574 14.6954 7.03449 13.2453 7.90413C12.0739 6.25916 10.5875 4.86325 8.87222 3.79743ZM11.9601 8.58003C10.6457 6.78642 8.91638 5.33783 6.92012 4.35813C6.8037 4.30158 6.66571 4.31297 6.56012 4.38783C4.94407 5.54379 3.73602 7.18225 3.10952 9.06783C3.07769 9.16534 3.08897 9.27181 3.14053 9.36049C3.19209 9.44917 3.27903 9.51164 3.37952 9.53223C4.31891 9.73471 5.27697 9.83788 6.23792 9.84003C8.21425 9.8411 10.167 9.4111 11.9601 8.58003ZM21.3021 10.9821C21.0733 8.8946 20.1478 6.94505 18.675 5.44803C18.6024 5.37423 18.5015 5.33529 18.3981 5.34115C18.2947 5.34701 18.1989 5.3971 18.135 5.47863C16.996 6.92977 15.6026 8.16179 14.0229 9.11463C14.5164 9.96959 14.9249 10.8709 15.2424 11.8056C16.5318 11.4561 17.862 11.2793 19.1979 11.28C19.7693 11.28 20.3402 11.3122 20.9079 11.3763C21.0149 11.387 21.1211 11.3493 21.1973 11.2735C21.2736 11.1978 21.3121 11.0919 21.3021 10.9848V10.9821ZM15.6402 13.1871C15.907 14.3219 16.0414 15.4837 16.0407 16.6494C16.0402 17.7652 15.9161 18.8775 15.6708 19.9659C15.6388 20.102 15.6885 20.2444 15.7983 20.331C15.908 20.4176 16.058 20.4328 16.1829 20.37C18.9543 18.9798 20.8599 16.3102 21.2742 13.2375C21.2867 13.1422 21.2605 13.0458 21.2015 12.9699C21.1425 12.894 21.0556 12.8449 20.9601 12.8334C19.1803 12.6044 17.3729 12.7267 15.6402 13.1934V13.1871ZM13.8726 12.2466C13.5824 11.3956 13.2089 10.5753 12.7575 9.79773C10.7232 10.7751 8.49485 11.2817 6.23792 11.28C5.18294 11.2801 4.13084 11.17 3.09872 10.9515C2.998 10.9303 2.89299 10.9532 2.81025 11.0144C2.7275 11.0756 2.67493 11.1694 2.66582 11.2719C2.64722 11.5119 2.63762 11.7546 2.63702 12C2.63607 14.5908 3.71186 17.0654 5.60702 18.8319C5.68712 18.9053 5.79608 18.9386 5.90353 18.9226C6.01098 18.9065 6.10542 18.8428 6.16052 18.7491C7.91716 15.7685 10.6375 13.4757 13.8726 12.2493V12.2466ZM7.29002 19.6725C7.24224 19.756 7.22981 19.855 7.25551 19.9477C7.28121 20.0403 7.34289 20.1188 7.42682 20.1657C9.30902 21.221 11.4983 21.5927 13.6233 21.2178C13.7522 21.1954 13.8581 21.1036 13.8987 20.9793C14.3629 19.5838 14.5999 18.1228 14.6007 16.6521C14.6009 15.6389 14.488 14.6289 14.2641 13.6407C11.3151 14.7897 8.85213 16.9199 7.29002 19.6725Z" fill="white"/>
</svg>
