<svg width="24" height="24" viewBox="0 0 24 24" fill="none" xmlns="http://www.w3.org/2000/svg">
<path d="M21.0396 8.49063L12.3996 2.73063C12.1577 2.5692 11.8424 2.5692 11.6004 2.73063L2.96041 8.49063C2.7601 8.62427 2.63986 8.84922 2.64001 9.09003L2.64001 18.45C2.64001 19.2453 3.28472 19.89 4.08001 19.89L19.92 19.89C20.7153 19.89 21.36 19.2453 21.36 18.45L21.36 9.09003C21.3602 8.84922 21.2399 8.62427 21.0396 8.49063ZM9.18481 14.13L4.08001 17.73L4.08001 10.4877L9.18481 14.13ZM10.6581 14.85H13.3419L18.4386 18.45L5.56141 18.45L10.6581 14.85ZM14.8152 14.13L19.92 10.4877V17.73L14.8152 14.13ZM12 4.19493L19.3719 9.10983L13.3419 13.41H10.6599L4.62991 9.10983L12 4.19493Z" fill="white"/>
</svg>
