<svg width="589" height="61" viewBox="0 0 589 61" fill="none" xmlns="http://www.w3.org/2000/svg">
<mask id="path-1-inside-1_1_241" fill="white">
<path fill-rule="evenodd" clip-rule="evenodd" d="M7 0C3.13401 0 0 3.13401 0 7V54C0 57.866 3.13402 61 7.00001 61H582C585.866 61 589 57.866 589 54V7C589 3.134 585.866 0 582 0H55V1H582C585.314 1 588 3.68629 588 7V54C588 57.3137 585.314 60 582 60H7.00001C3.6863 60 1 57.3137 1 54V7C1 3.68629 3.68629 1 7 1V0Z"/>
</mask>
<path fill-rule="evenodd" clip-rule="evenodd" d="M7 0C3.13401 0 0 3.13401 0 7V54C0 57.866 3.13402 61 7.00001 61H582C585.866 61 589 57.866 589 54V7C589 3.134 585.866 0 582 0H55V1H582C585.314 1 588 3.68629 588 7V54C588 57.3137 585.314 60 582 60H7.00001C3.6863 60 1 57.3137 1 54V7C1 3.68629 3.68629 1 7 1V0Z" fill="#D9D9D9"/>
<path d="M7 0H8V-1H7V0ZM55 0V-1H54V0H55ZM55 1H54V2H55V1ZM7 1V2H8V1H7ZM1 7C1 3.68629 3.68629 1 7 1V-1C2.58172 -1 -1 2.58172 -1 7H1ZM1 54V7H-1V54H1ZM7.00001 60C3.6863 60 1 57.3137 1 54H-1C-1 58.4183 2.58174 62 7.00001 62V60ZM582 60H7.00001V62H582V60ZM588 54C588 57.3137 585.314 60 582 60V62C586.418 62 590 58.4183 590 54H588ZM588 7V54H590V7H588ZM582 1C585.314 1 588 3.68629 588 7H590C590 2.58172 586.418 -1 582 -1V1ZM55 1H582V-1H55V1ZM54 0V1H56V0H54ZM582 0H55V2H582V0ZM589 7C589 3.13401 585.866 0 582 0V2C584.761 2 587 4.23857 587 7H589ZM589 54V7H587V54H589ZM582 61C585.866 61 589 57.866 589 54H587C587 56.7614 584.761 59 582 59V61ZM7.00001 61H582V59H7.00001V61ZM0 54C0 57.866 3.13402 61 7.00001 61V59C4.23858 59 2 56.7614 2 54H0ZM0 7V54H2V7H0ZM7 0C3.13401 0 0 3.13401 0 7H2C2 4.23858 4.23858 2 7 2V0ZM8 1V0H6V1H8Z" fill="#DEE1E6" mask="url(#path-1-inside-1_1_241)"/>
</svg>
